<svg id="レイヤー_3" data-name="レイヤー 3" xmlns="http://www.w3.org/2000/svg" viewBox="0 0 283.46 283.46"><defs><style>.cls-1,.cls-9{fill:none;}.cls-1,.cls-2,.cls-3,.cls-4,.cls-5,.cls-6,.cls-7,.cls-8{stroke:#000;stroke-miterlimit:10;stroke-width:0.2px;}.cls-2{fill:#fff;}.cls-3{fill:#f0f;}.cls-4{fill:red;}.cls-5{fill:#ff0;}.cls-6{fill:lime;}.cls-7{fill:aqua;}.cls-8{fill:blue;}</style></defs><path class="cls-1" d="M49.28,80.5a13.56,13.56,0,0,1-1.82,6.81L35.68,80.5l11.78-6.81A13.56,13.56,0,0,1,49.28,80.5Z"/><path class="cls-1" d="M141.73,19.27V32.88A13.59,13.59,0,0,1,130,26.08Z"/><path class="cls-1" d="M141.73,128.13v13.6L130,134.92A13.59,13.59,0,0,1,141.73,128.13Z"/><path class="cls-2" d="M234.18,80.5A13.56,13.56,0,0,0,236,87.31h0l-82.48,47.61a13.59,13.59,0,0,0-11.78-6.79L224.21,80.5,141.73,32.88a13.59,13.59,0,0,0,11.78-6.8L236,73.69h0A13.56,13.56,0,0,0,234.18,80.5Z"/><path class="cls-1" d="M153.51,134.92l-11.78,6.81v-13.6A13.59,13.59,0,0,1,153.51,134.92Z"/><path class="cls-1" d="M153.51,26.08a13.59,13.59,0,0,1-11.78,6.8V19.27Z"/><path class="cls-1" d="M247.78,80.5,236,87.31a13.65,13.65,0,0,1,0-13.62Z"/><path class="cls-1" d="M155.33,141.73a13.56,13.56,0,0,1-1.82,6.81l-11.78-6.81,11.78-6.81A13.56,13.56,0,0,1,155.33,141.73Z"/><path class="cls-1" d="M247.78,80.5V94.1A13.59,13.59,0,0,1,236,87.31Z"/><path class="cls-1" d="M247.78,189.36V203L236,196.15A13.59,13.59,0,0,1,247.78,189.36Z"/><path class="cls-1" d="M153.51,257.38l-11.78,6.81V250.58A13.59,13.59,0,0,1,153.51,257.38Z"/><path class="cls-1" d="M153.51,148.54a13.59,13.59,0,0,1-11.78,6.79v-13.6Z"/><path class="cls-1" d="M247.78,203,236,209.77a13.65,13.65,0,0,1,0-13.62Z"/><path class="cls-1" d="M49.28,203a13.56,13.56,0,0,1-1.82,6.81L35.68,203l11.78-6.81A13.56,13.56,0,0,1,49.28,203Z"/><path class="cls-1" d="M141.73,141.73v13.6A13.59,13.59,0,0,1,130,148.54Z"/><path class="cls-1" d="M141.73,250.58v13.61L130,257.38A13.59,13.59,0,0,1,141.73,250.58Z"/><path class="cls-2" d="M128.13,141.73a13.56,13.56,0,0,0,1.82,6.81h0L47.46,100.9v95.25a13.59,13.59,0,0,0-11.78-6.79V94.1a13.59,13.59,0,0,0,11.78-6.79h0L130,134.92A13.56,13.56,0,0,0,128.13,141.73Z"/><path class="cls-1" d="M47.46,196.15,35.68,203v-13.6A13.59,13.59,0,0,1,47.46,196.15Z"/><path class="cls-1" d="M47.46,87.31A13.59,13.59,0,0,1,35.68,94.1V80.5Z"/><path class="cls-1" d="M141.73,141.73,130,148.54a13.65,13.65,0,0,1,0-13.62Z"/><path class="cls-3" d="M49.28,80.5a13.58,13.58,0,1,1-1.82-6.81A13.56,13.56,0,0,1,49.28,80.5Z"/><path class="cls-4" d="M155.33,19.27a13.6,13.6,0,1,1-13.6-13.6A13.56,13.56,0,0,1,155.33,19.27Z"/><path class="cls-5" d="M261.38,80.5a13.6,13.6,0,1,1-13.6-13.6A13.59,13.59,0,0,1,261.38,80.5Z"/><path class="cls-6" d="M261.38,203a13.6,13.6,0,1,1-13.6-13.6A13.59,13.59,0,0,1,261.38,203Z"/><path class="cls-7" d="M155.33,264.19a13.6,13.6,0,1,1-1.82-6.81A13.59,13.59,0,0,1,155.33,264.19Z"/><path class="cls-8" d="M49.28,203a13.58,13.58,0,1,1-1.82-6.81A13.56,13.56,0,0,1,49.28,203Z"/><path class="cls-2" d="M155.33,141.73a13.58,13.58,0,1,1-1.82-6.81A13.56,13.56,0,0,1,155.33,141.73Z"/><polygon class="cls-6" points="236 100.9 236 196.15 235.99 196.15 153.51 243.79 153.51 148.54 153.52 148.54 236 100.9"/><path class="cls-2" d="M247.78,94.1v95.26A13.59,13.59,0,0,0,236,196.15V100.9l-82.48,47.64h0a13.65,13.65,0,0,0,0-13.62L236,87.31h0A13.59,13.59,0,0,0,247.78,94.1Z"/><path class="cls-2" d="M234.18,203a13.56,13.56,0,0,0,1.82,6.81l-82.49,47.61a13.59,13.59,0,0,0-11.78-6.8V155.33a13.59,13.59,0,0,0,11.78-6.79v95.25L236,196.15h0A13.56,13.56,0,0,0,234.18,203Z"/><polygon class="cls-6" points="129.95 148.54 129.95 243.79 47.47 196.15 47.46 196.15 47.46 100.9 129.94 148.54 129.95 148.54"/><path class="cls-2" d="M141.73,155.33v95.25a13.59,13.59,0,0,0-11.78,6.8L47.46,209.77a13.65,13.65,0,0,0,0-13.62h0L130,243.79V148.54A13.59,13.59,0,0,0,141.73,155.33Z"/><polygon class="cls-6" points="224.21 80.5 141.73 128.13 59.25 80.5 141.73 32.88 224.21 80.5"/><path class="cls-2" d="M59.25,80.5l82.48,47.63A13.59,13.59,0,0,0,130,134.92L47.47,87.31h0a13.65,13.65,0,0,0,0-13.62h0L130,26.08a13.59,13.59,0,0,0,11.78,6.8Z"/><rect class="cls-9" width="283.46" height="283.46"/></svg>